<?xml version="1.0" encoding="UTF-8"?>
<svg xmlns="http://www.w3.org/2000/svg" version="1.1" viewBox="0 0 4096 4096">
  <!-- Generator: Adobe Illustrator 29.5.1, SVG Export Plug-In . SVG Version: 2.1.0 Build 141)  -->
  <defs>
    <style>
      .st0 {
        fill: #5a5a5a;
      }

      .st1 {
        fill: #c3c3c3;
      }

      .st2 {
        fill: #3e3e3e;
      }

      .st3 {
        fill: #767676;
      }

      .st4 {
        fill: #bababa;
      }

      .st5 {
        fill: #8f8f8f;
      }

      .st6 {
        fill: #fff;
      }

      .st7 {
        fill: #bdbdbd;
      }

      .st8 {
        fill: #acacac;
      }

      .st9 {
        fill: #212121;
      }

      .st10 {
        fill: #969696;
      }

      .st11 {
        fill: #030303;
      }

      .st12 {
        fill: #c5c5c5;
      }

      .st13 {
        fill: #a8a8a8;
      }

      .st14 {
        display: none;
      }

      .st15 {
        fill: #888;
      }

      .st16 {
        fill: #545454;
      }

      .st17 {
        fill: #c1c1c1;
      }

      .st18 {
        fill: #a9a9a9;
      }

      .st19 {
        fill: #b9b9b9;
      }

      .st20 {
        fill: #979797;
      }

      .st21 {
        fill: #565656;
      }

      .st22 {
        fill: #1a121e;
      }

      .st23 {
        fill: #fefefe;
      }

      .st24 {
        fill: #787878;
      }
    </style>
  </defs>
  <g id="Layer_1" class="st14">
    <g>
      <path class="st6" d="M4096,0v4096H0V0h4096ZM3618,1124c9.39,7.82,10.39,8.13,20,14,4.64,13.26,30.42,31.06,42,42,7.44,7.03,14.57,15.05,22,22,2.84,2.66,5.29,5.39,8,8,4.22,4.05,12.54,13.38,16,16,2.12,1.61,2.63,1.3,4,2,2.57,11.98,3.88,7.1,10,12,2.37,4.52,6.82,7.19,10,11,13.57,16.22,26.72,32.57,40,49l8.92,10.08c42.97,60.45,79.58,120.92,108,190.1,1.26,3.06-.21,7,5.07,5.82,64.85,195.38-20.17,438.02-104.28,616.72-211.18,448.62-570.23,904.73-927.69,1246.31-94.04,89.86-224.29,208.73-343.31,260.69-4.08,1.78-48.02,20.41-48.74,15.19,4.41-95.17,34.08-188.87,65.98-277.94,86.89-242.62,213.37-488.73,337.69-714.31,28.35-51.44,53.39-98.83,88.3-145.7,47.79-64.17,86.25-145.78,130.4-213.6,24.55-37.72,45.63-67.86,62.61-111.39,14.26-36.54,20.04-65.06,7.59-103.52-9.54-29.46-39.92-46.97-67.48-56.52-20.31-7.03-37.31-8.84-56.55-17.45-10.17-4.55-16.31-5.78-27.11-2.06-34.85,12.03-73.92,38.74-104.86,59.13-217.77,143.58-409.03,323.37-591.62,508.4-2.6.73-8.46-8.71-8.63-9.36-1.38-5.31,4.22-16.79-2.21-27.2-.98-1.59-3.88-1.85-4.94-3.46-1.68-2.56-.88-7.57-3.01-9.08-2.7-1.92-9.15-.03-10.06-.94-.79-.8,1.53-5.79-3.29-9.71-5.79-4.71-39.55-16.24-47.91-18.08-5.15-1.14-11.23.52-17.34-.68-11.37-2.23-11.94-15.23-29.61-10.5-25.73,6.89-96.91,69.7-119.98,90.04-111.09,97.98-213.63,211.42-311,323-64.97,74.45-127.38,158.09-195.03,229.07-1.92,2.01-1.82,8.15-5.98,3.93,86.1-170.04,181.5-335.45,278.43-499.57,55.78-94.45,115.13-187.09,169.95-282.05,26.63-46.14,89.86-141.66,58.56-193.26-1.89-3.11-5.95-4.72-6.91-6.08-1.35-1.91,1.54-9.78-8-8-.5-1.98-2.52-5.53-3.94-7.02-7.36-7.68-42.2-18.48-53.95-22.09-4.91-1.51-9.97-.14-14.63-1.37-5.79-1.52-11.41-8.09-20.65-9.34-27.52-3.72-79.08,24.07-104.18,37.47-55.31,29.54-106.31,66.18-158.66,100.34-.51.33-2.91-.64-3.77.21-.92.91.11,3.36-.23,3.79-.27.33-1.51-.31-2,0-3.29,2.05-11.19,2.25-10,8-5.58,3.11-10.59,6.73-16,10-5.99,3.62-3.31,3.4-4,4-.9.78-2.79,1.26-4,2-3.47,2.12-11.11,2.24-10,8-3.51,1.87-6.63,3.98-10,6-6.95,4.17-3.47,3.08-6,6-.29.33-1.53-.31-2,0-6.05,4.06-18.43,7.63-20,16-.56.23-1.4-.22-2,0-8.01,2.92-5.26,5.47-6,6-1.32.94-5.3,2.22-8,4-6.91,4.55-19.21,9.32-22,18-.57.22-1.39-.21-2,0-8.08,2.74-4.46,4.37-6,6-.32.34-1.57-.32-2,0-5.27,3.96-3.04,2.74-6,6-.3.33-1.55-.32-2,0-11.04,7.88-23.97,15.18-34.64,24.36-2.66,2.29-5.5,3.18-5.36,7.64-.52.27-1.47-.27-2,0-18.49,9.4-49.58,35.85-66.92,50.08-4.66,3.82-12.18,7.88-13.08,13.92-.48.3-1.52-.3-2,0-44.48,28.04-106.44,80.47-146.64,116.37-2.57,2.3-5.55,3.1-5.36,7.63-.53.26-1.45-.26-2,0-4.86,2.25-9.36,3.02-10,10-.54.26-1.46-.26-2,0-4.75,2.3-9.4,2.94-10,10-.55.27-1.49-.28-2,0-13.85,7.54-29.28,20.97-42,30,194.88-241.54,395.81-479.08,579.63-729.37,100.62-137,206.33-288.64,280.08-441.92,52.15-108.38,144.03-314.76-14.68-374.75-88.81-33.57-128.02-30.75-213.09,10.98-170.74,83.75-357.25,270.58-482.97,413.03-146.42,165.91-276.02,346.31-389.98,536.02-2.03-4.32,1.54-10.73,2.98-15.02,35.63-106.75,83.69-208.35,122.07-313.93,8.18-22.51,21.75-51.34,26.99-73.01,5.46-22.54,4.83-62.41-4.55-83.51-.6-1.35-12.46-18.11-13.41-18.75-4.04-2.7-6.63.33-11.06.23,2.37-19.15-32.37-28.62-47.58-33.43-14.02-4.44-23.92-5.68-37.43-6.97-17.31-1.66-15.1-5.79-25.48-12.07-17.22-10.42-24.87-3.77-38.46,6.53-37.05,28.05-64.38,81.61-90.09,120.02l-10.91-.06-70,177.21c4.12,14.04.81,18.98-5.02,30.81-24.96,50.59-60.36,99.38-86.02,150l-9.22,3.23c-61.64,106.89-134.1,206.49-202.83,308.73-2.5,2.69-6.59.96-9.16,3.31-22.47,20.59-47.12,81.53-71.77,103.73-3.36,3.02-7.54,3.43-11.18,6.82-13.52,12.59-32.71,45.55-47.76,54.24-9.33,5.39-19.86,10.77-29.74,16.26-8.89,4.95-28.01,7.51-27.25,20.31.93,15.82,7.28,44.96,10.51,61.69,8.92,46.16,16.92,88.34,64.85,109.15,36.8,15.98,65.41,15.31,100.36-4.68,28.98-16.58,76.7-75.13,93-105,20.92-38.35,56.88-90.05,72.15-127.85,50.67-125.49,126.99-241.2,183.91-364.09,9.83-21.22,33.45-61.67,46.72-81.28,1.74-2.57,2.27-5.46,6.38-4.6-14.12,59.85-36.18,117.74-54.52,176.46-63.2,202.34-120.89,406.08-172.11,611.89-31.03,124.69-64.03,249.15-94,374-29.78,124.09-55.36,254.45-73.08,380.92-8.39,59.9-22.79,146.98-18.25,205.68.67,8.69,9.17,60.57,12.6,64.48.24.27,4.16,1.98,5.36,2.55l.02,20c4.15-.76,3.59-4.85,3.98-8,5.66,2.4,4.97,7.35,6,12,.76,3.44-.7,9.24,1.84,12.8,1.17,1.64,4.03.79,5.42,1.83,1.49,1.11,1.65,3.7,4.03,5.01,1.55.85,3.87-.02,4.71.36,11.25,5.14,23.22,12.87,31.01-1.99l2.02,4.11c3.27-3.04,14.07-2.5,14.94-3.02.76-.45,11.55-11.82,12.1-12.56,9.18-12.34,14.66-56.98,17.6-73.86,12.46-71.45,20.9-143.74,32.67-215.33,23.84-145.02,48.88-290.16,81.69-433.33.52-.54,2.58,1.09,3.01,1.97,5.66,11.54,3.13,38.81,9.33,50.68,2.19,4.19,6.8,2.92,8.73,5.35,1.57,1.98.46,5.18.92,6l-3.99-.02c-1.16,9.95.61,17.35,11.99,16.02.04.66-.04,1.34,0,2,.19,3.02-3.31,6.08.12,10.82,3.08,4.25,6.61,2.4,7.88,3.18.18.11-.47,2.92,1.38,4.03,39.4,23.75,78.76-6.27,109.57-30.09,56.66-43.81,107.46-95.57,161.03-142.97,288.79-255.54,582.95-509.75,905.05-722.93-.18,3.6-2.93,8.08-4.67,11.31-52.27,97.22-118.37,195.13-174.7,291.3-77.41,132.17-154.05,265.34-224.7,401.3-42.95,82.66-93.08,176.3-124.45,263.55-23.18,64.49-17.62,80.27-.51,144.49,3.06,11.48-4.96,17.68,12,22,.52,3.1-.83,6.41.99,10.01s5.98,3.09,7.01,3.99c41.52,36.13,93.27-3.51,126.03-32.97,112.48-101.18,214.63-232.92,314.94-347.06,24.29-27.63,49.25-54.78,74.05-81.96,4.93-.77,3.28,3.43,1.93,5.94-9.04,16.78-29.51,44.35-41.33,60.67-33.98,46.96-70.75,92.04-111.42,132.58-10.57,10.54-16.58,16.09-18.21,30.79-.03.27-2.78,1.89-1.99,3.99h3.99c.44,13.51,3.05,26.52,4,40.01.73,10.43,2.88,4.38,4,6,.3.44-.13,8.07.26,10.68,1.31,8.74,3.38,20.99,5.74,29.32,1.28,4.51,4.6,4.72,8,2,.28,1.74,4.63,2.68,5.68,5.39,1.11,2.87-.22,6.37.32,8.61-4.37-.97-4.86,2.08-5.47,5.43-4.22,23.28,10.35,10.48,13.4,12.6l1.97,20.72c.41,2.42,3.61.86,4.1,1.25.53.42,1.51,1.44,2,2,2.79,3.18.76,6.09,8,8,.62.16,1.37-.15,2,0-1.52,4.38,7.94,6.76,12,8,26.32,8.07,35.43,1.39,60-2,10.18-1.41,3.61-1.1,6-4,.22-.27,4.51-.74,6.65-2.27,21.94-15.62,41.79-38.13,61.3-56.78,102.19-142.18,201.63-285.02,313.52-420.48.64-4.28.14-7.56,2.41-11.59,10.22-18.16,63.56-71.65,81.09-90.91,138.27-151.83,291.8-301.07,450.08-431.92,63.27-52.31,128.63-102.47,196.92-148.06.65,3.41-1.06,5.84-2.25,8.73-27.24,66.71-76.21,135.1-106.73,201.37l-.49,13.34c-137.49,244.81-274.7,491.32-386.88,749.2-42.91,98.66-91.63,215.51-110.69,321.31-11.15,61.9-8.38,167.44,29.05,220.05,1.34,22.87,16.13,39.45,34,52,30,21.08,62.22,27.31,98.42,21.42,156.41-25.47,340.33-197.33,452.64-305.36,267.85-257.66,511.93-556.76,711.78-870.22,162.7-255.19,363.82-609.83,347.15-920.81-24.99-466.06-548.65-836.36-946.94-985.06-369.59-137.98-719.78-171.97-1111.75-117.68-692.77,95.95-1385.71,462.65-1752.12,1071.88-108.7,180.74-223.18,433.02-194.88,648.55,10.93,83.24,32.13,168.93,88.69,233.31,5.18,5.9,29.38,30.86,37.14,25.11,1.7-11.31,3.49-24.36,3.97-36.06,2.17-53.06-9.18-80.14-19.49-128.68-25.6-120.53,50.33-335.53,101.05-447.76,349.01-772.25,1207.91-1217.15,2031.33-1256.67,514.76-24.71,936.71,105.97,1331.02,434.02ZM3198.02,1220c1.14-8.59-1.5-12.33-8.63-16.39-12.96-7.37-53.42-19.49-68.87-23.16-2.69-.64-5.59-1.01-8.29-.22-4.73,3.3-7.83,78.75-10.71,92.29-1.05,4.97-9.56,30.09-12.79,31.2-11,3.8-41.01-13.32-53.66-17.8-14.73-5.22-35.3-12.15-50.2-15.8-4.73-1.16-16.86-4.62-20.05-.21-1.85,2.56,7.87,56.07,9.76,62.51,2.22,7.54,9.25,12.03,9.55,14.58.52,4.41-3.2,8.54-1.24,12.92,1.63,3.66,7.48,4.92,8.54,6.63,1.21,1.96.43,5.46,2.43,8.53,6.17,9.48,29.03,19.1,40.02,22.02,4.77,1.27,12.4-1.17,12.17,3.94-.31,7-16.68,36.64-21.03,45.01-19.1,36.8-44.71,75.8-60.46,113.54-7.22,17.3-1.45,46.36,4.4,64.42,4.15,12.8,11.39,25.08,25.37,28.63,7.25,1.85,24.36,5.91,31.15,6.93,27.2,4.1,64.47-36.79,85.46-51.61,1.71-1.2,2.01-2.76,5.01-1.96,7.67,41.65,17.88,112.94,65.58,127.43,34.22,10.4,72.11-13.03,76.23-48.65,6.55-56.65-15.37-117.98-31.49-171.37l36.7-31.41c27.22-16.22,53.52-37.87,77.05-58.95,25.04-22.42,34.22-62.43,10.76-88.87-18.05-20.34-53.65-26.31-78.81-33.19-5.54-1.52-10.19-5.94-17.18-6.82-9.28-1.16-30.23,2.94-39.31,5.98-2.03.68-1.64,5.91-7.51,3.83-2.92-3.01,11.79-38.95,11.82-46.74.05-13.24-4.27-32.38-15.04-41.17l-6.77,3.93Z"/>
      <path class="st11" d="M3746,1244c2.22,1.82,9.16,7.19,10,8,.28.27.66,2.51,2,4,6.34,7.04,6.45,7.41,14,14,3.1,5.76,6.2,13.9,10.66,19.33,2.13,2.59,12.03,5.12,7.34,10.67-13.28-16.43-26.43-32.78-40-49-3.18-3.81-7.64-6.48-10-11,1.85,1.48,4.17,2.5,6,4Z"/>
      <path class="st15" d="M3756,1252c-.84-.81-7.78-6.18-10-8h2c5.98-.34,5.96,5.88,8,8Z"/>
      <path class="st15" d="M3758,1256c-1.34-1.49-1.72-3.73-2-4,1.46,1.52,1.66,3.65,2,4Z"/>
      <path class="st15" d="M3772,1270c-7.55-6.59-7.66-6.96-14-14,5.31,5.47,7.92,2.68,14,14Z"/>
      <path class="st15" d="M3912,1506c-5.28,1.18-3.81-2.76-5.07-5.82-28.42-69.18-65.03-129.64-108-190.1l-8.92-10.08c4.7-5.55-5.21-8.08-7.34-10.67-4.46-5.43-7.57-13.57-10.66-19.33,56.75,49.48,116.28,164.53,140,236Z"/>
      <path class="st13" d="M1524,2372c-.08,3.94-2.41,5.63-5.03,7.97-19.79,17.63-52.62,42.05-74.97,56.03.89-6.05,8.42-10.1,13.08-13.92,17.34-14.23,48.44-40.68,66.92-50.08Z"/>
      <path class="st16" d="M2406,3706c5.05,7.1,12.6,15.94,18,24,1.06,7.99,6.96,17.63,14,22,.4.35,2.82-.37,3.96.03l-1.96,5.97c-17.87-12.55-32.66-29.13-34-52Z"/>
      <path class="st13" d="M1264,2580c-.07,3.95-2.43,5.62-5.02,7.97-15.34,13.95-32.48,26.24-48,40.01-2.57.74-3.95-.4-2.95-2.95,1.55-3.98,10.15-12.31,13.98-15.03,12.72-9.03,28.15-22.46,42-30Z"/>
      <path class="st13" d="M1442,2436c-3.5,8.93-15.29,15.76-23.06,22.03-22.43,18.08-47.42,37.92-69.9,55.93-16.98,13.61-40.86,36.95-59.04,46.04-.18-4.54,2.79-5.34,5.36-7.63,40.2-35.89,102.16-88.33,146.64-116.37Z"/>
      <path class="st21" d="M3618,1124c3.93-3.06,4.85-1.53,8.07.87,4.17,3.11,10.52,9.1,11.93,13.13,17.08,10.43,32.29,26.39,46.02,40.98l-4.02,1.02c-11.58-10.94-37.36-28.74-42-42-9.61-5.87-10.61-6.18-20-14Z"/>
      <path class="st18" d="M1768,3302c.31,1.28,11.48,16.03,13.09,21.93,1.87,6.84-1.05,11.74.91,18.07-.49-.39-3.68,1.18-4.1-1.25l-1.97-20.72c-3.06-2.12-17.62,10.68-13.4-12.6.61-3.34,1.1-6.4,5.47-5.43Z"/>
      <path class="st13" d="M1566,2340c.18,4.53-2.77,5.34-5.37,7.63-10.6,9.35-22.47,17.97-34.63,24.37-.15-4.47,2.7-5.36,5.36-7.64,10.67-9.18,23.61-16.48,34.64-24.36Z"/>
      <path class="st7" d="M1372,3392l5.72.24c3.31,8.53,4.82,12.97,6.28,21.76-16.96-4.32-8.94-10.52-12-22Z"/>
      <path class="st2" d="M478,3792l9.73,3.28.29,12.72,5.98,4c-.84-.38-3.16.49-4.71-.36-2.38-1.31-2.54-3.9-4.03-5.01-1.39-1.04-4.25-.19-5.42-1.83-2.54-3.55-1.08-9.35-1.84-12.8Z"/>
      <path class="st21" d="M3730,1228c1.07.55,3.76-.13,7.05,1.88,3.46,2.12,10.23,9.86,10.95,14.12h-2c-1.83-1.5-4.15-2.52-6-4-6.12-4.9-7.43-.02-10-12-1.37-.7-1.88-.39-4-2l1.97-.99c-5.88-4.77-10.29-13.38-17.97-15.01-2.71-2.61-5.16-5.34-8-8l-1.01-7.99c6.63,9.26,23.75,20.22,29.2,28.99,2.17,3.5-.3,4.46-.19,5Z"/>
      <path class="st12" d="M708,3140c3.63,6.49,7.44,6.62,8,16-11.38,1.34-13.15-6.07-11.99-16.02l3.99.02Z"/>
      <path class="st17" d="M724,3172c-1.28-.79-4.81,1.07-7.88-3.18-3.43-4.74.07-7.79-.12-10.82l9.16,1.93-1.16,12.07Z"/>
      <path class="st13" d="M1606,2310c-2.76,8.56-14.26,15.04-22,18,2.79-8.68,15.09-13.45,22-18Z"/>
      <path class="st5" d="M1392,3428c-1.03-.9-5.15-.3-7.01-3.99s-.47-6.91-.99-10.01c2.03.52,5.36-.79,7.1,1.87l.9,12.13Z"/>
      <path class="st13" d="M1642,2284c-1.97,7.28-13.04,13.11-20,16,1.57-8.37,13.95-11.94,20-16Z"/>
      <path class="st2" d="M468,3768c.91.43,3.68-1.24,4.09,1.27-.28,3.48.33,7.35-.09,10.73-.39,3.15.17,7.24-3.98,8l-.02-20Z"/>
      <path class="st0" d="M2074,2146h-8.01c-.4-2.45.55-5.83.01-8,9.54-1.78,6.65,6.09,8,8Z"/>
      <path class="st18" d="M1806,3360c-4.06-1.24-13.52-3.62-12-8,5.36,1.26,11.16-1.17,12,8Z"/>
      <path class="st13" d="M1288,2560c-.6,7.06-5.25,7.7-10,10,.64-6.98,5.14-7.75,10-10Z"/>
      <path class="st13" d="M1276,2570c-.59,7.08-5.28,7.69-10,10,.6-7.06,5.25-7.7,10-10Z"/>
      <path class="st13" d="M1670,2264c.22,7.1-6.34,6.05-10,8-1.11-5.76,6.53-5.88,10-8Z"/>
      <path class="st13" d="M1704,2240c.27,7.14-6.49,6.04-10,8-1.19-5.75,6.71-5.95,10-8Z"/>
      <path class="st18" d="M1784,3344l5.65.3,2.35,7.7c-7.24-1.91-5.21-4.82-8-8Z"/>
      <path class="st13" d="M1650,2278c.14,4.07-2.01,6.16-6,6,2.53-2.92-.95-1.83,6-6Z"/>
      <path class="st13" d="M1620,2300c.17,4.02-1.95,6.05-6,6,.74-.53-2.01-3.08,6-6Z"/>
      <path class="st13" d="M1574,2334c.14,4.07-2.01,6.17-6,6,2.96-3.26.73-2.04,6-6Z"/>
      <path class="st18" d="M1754,3286l10.03.04c-.11,1.03-2.05,1.82-2.03,1.96-3.4,2.72-6.72,2.51-8-2Z"/>
      <path class="st13" d="M1582,2328c.14,4.06-2.01,6.17-6,6,1.54-1.63-2.08-3.26,6-6Z"/>
      <path class="st18" d="M1744,3240h4s0,6,0,6c-1.12-1.62-3.27,4.43-4-6Z"/>
      <path class="st18" d="M1872,3354c-2.39,2.9,4.18,2.59-6,4v-3.99s6-.01,6-.01Z"/>
      <path class="st13" d="M1710,2236v4s-4,0-4,0c.34-.42-.68-2.88.23-3.79.86-.85,3.26.12,3.77-.21Z"/>
      <path class="st13" d="M1678,2258c.68,3.83-.19,4.65-4,4,.69-.6-1.99-.38,4-4Z"/>
      <path class="st18" d="M1740,3200h-3.99c-.8-2.11,1.96-3.73,1.99-4l2,4Z"/>
      <path class="st11" d="M3726,1226c-3.46-2.62-11.78-11.95-16-16,7.68,1.63,12.09,10.24,17.97,15.01l-1.97.99Z"/>
      <path class="st23" d="M2053.79,1152.19c-12.56,88.98-54.39,175.26-96.75,253.85-101.19,187.75-237.54,367.51-368.25,535.75-149,191.78-303.65,380.36-458.84,567.16-142.96,172.07-291.87,339.39-427.93,517.05,43.71-162.37,102.31-321.31,169.62-475.36,169.53-387.95,406.62-758.41,700.31-1063.69,98.41-102.29,227.64-224.89,350.71-295.29,38.13-21.81,85.99-48.8,131.13-39.46Z"/>
      <path class="st9" d="M2225.99,608.02l-167.98,17.96c1.21-2.83,10.11-3.24,13.27-3.7,50.67-7.48,103.65-11.3,154.71-14.26Z"/>
      <path class="st24" d="M1914,2958c4.53-6.94,8.24-12.59,15.02-17.96-.5,8.56-7.06,14.76-13.02,19.96l-2-2Z"/>
      <path class="st1" d="M2325.99,2566.01l.02,10.98c-10.35,4.58-11.91-12.89-.02-10.98Z"/>
      <path class="st19" d="M2300.01,2529.99c-1.6-8.29,13.88-7.12,13.95-2.99l-13.95,2.99Z"/>
      <path class="st10" d="M2438,3752c-7.04-4.37-12.94-14.01-14-22,2.6,3.88,13,21.13,14,22Z"/>
      <path class="st8" d="M1791.99,3328.01c2.06,2.03-3.24,14.66-7.98,9.98-2.06-2.03,3.24-14.66,7.98-9.98Z"/>
      <path class="st4" d="M1133.99,1586.01l-2.96,11.97c-4.22-2.01-2.89-13.56,2.96-11.97Z"/>
      <path class="st3" d="M3183.98,2132c-5.56-1.95-5.5-10.4-.97-13.99l.97,13.99Z"/>
      <path class="st20" d="M1113.99,1526.01v5.98s-7.98,0-7.98,0v-2.96c2.11-3.14,4.29-3.49,7.98-3.02Z"/>
      <path class="st10" d="M864,1946h-2c.55-3.75,2.02-8.74,5.98-10,2.15,6.51-2.69,7.79-3.98,10Z"/>
      <path class="st6" d="M1916,2960c-.89.78-1.42,3.43-3.02,3.98h-2.97c-1.46-4.26,3.01-4.49,3.99-5.98l2,2Z"/>
      <rect class="st9" x="2028.01" y="628.02" width="11.98" height="1.96"/>
      <rect class="st9" x="2044.01" y="626.02" width="11.98" height="1.96"/>
      <path class="st6" d="M864,1946c-.61,1.05,1.12,4.04-1,4.02-1.64.08-1.17-2.86-1-4.02h2Z"/>
      <path class="st23" d="M701,3028c1.3.67,1.3,1.33,0,2v-2Z"/>
      <path class="st6" d="M1573,3130c1.3.67,1.3,1.33,0,2v-2Z"/>
    </g>
  </g>
  <g id="Layer_3" class="st14">
    <rect class="st22" width="4096" height="4096"/>
  </g>
  <g id="Layer_2">
    <path class="st22" d="M2440,3758l1.96-5.97c-1.14-.4-3.56.32-3.96-.03-1-.87-11.4-18.12-14-22-5.4-8.06-12.95-16.9-18-24-37.43-52.6-40.2-158.15-29.05-220.05,19.06-105.8,67.77-222.65,110.69-321.31,112.18-257.88,249.39-504.4,386.88-749.2l.49-13.34c30.52-66.26,79.49-134.65,106.73-201.37,1.18-2.9,2.9-5.33,2.25-8.73-68.29,45.58-133.65,95.75-196.92,148.06-158.28,130.85-311.82,280.09-450.08,431.92-17.53,19.25-70.88,72.75-81.09,90.91-2.27,4.03-1.76,7.32-2.41,11.59-111.89,135.46-211.33,278.29-313.52,420.48-19.51,18.65-39.36,41.16-61.3,56.78-2.14,1.52-6.43,2-6.65,2.27h-5.99s0,4,0,4c-24.57,3.39-33.68,10.07-60,2-.84-9.17-6.64-6.74-12-8-.63-.15-1.38.16-2,0l-2.35-7.7-5.65-.3c-.49-.56-1.47-1.58-2-2-1.96-6.32.96-11.23-.91-18.07-1.62-5.9-12.78-20.66-13.09-21.93-.54-2.24.79-5.74-.32-8.61-1.05-2.7-5.4-3.64-5.68-5.39-.02-.14,1.92-.93,2.03-1.96l-10.03-.04c-2.36-8.33-4.43-20.59-5.74-29.32-.39-2.61.04-10.24-.26-10.68v-6.01s-4,0-4,0c-.95-13.5-3.56-26.5-4-40l-2-4c1.63-14.71,7.63-20.26,18.21-30.79,40.67-40.54,77.45-85.62,111.42-132.58,11.81-16.32,32.28-43.89,41.33-60.67,1.35-2.51,3-6.71-1.93-5.94-24.81,27.17-49.77,54.32-74.05,81.96-100.32,114.14-202.46,245.88-314.94,347.06-32.76,29.46-84.51,69.1-126.03,32.97l-.9-12.13c-1.74-2.67-5.07-1.36-7.1-1.87-1.46-8.79-2.97-13.23-6.28-21.76l-5.72-.24c-17.12-64.22-22.68-80,.51-144.49,31.37-87.25,81.5-180.89,124.45-263.55,70.65-135.96,147.29-269.14,224.7-401.3,56.32-96.17,122.43-194.08,174.7-291.3,1.74-3.23,4.49-7.71,4.67-11.31-322.1,213.18-616.26,467.39-905.05,722.93-53.57,47.4-104.36,99.17-161.03,142.97-30.8,23.81-70.17,53.84-109.57,30.09-1.85-1.11-1.2-3.92-1.38-4.03l1.16-12.07-9.16-1.93c-.04-.66.04-1.34,0-2-.56-9.38-4.37-9.51-8-16-.46-.82.65-4.02-.92-6-1.93-2.43-6.54-1.16-8.73-5.35-6.2-11.87-3.67-39.14-9.33-50.68-.43-.88-2.49-2.51-3.01-1.97-32.8,143.17-57.84,288.31-81.69,433.33-11.77,71.59-20.21,143.88-32.67,215.33-2.94,16.88-8.42,61.53-17.6,73.86-.55.74-11.34,12.11-12.1,12.56-.88.52-11.67-.02-14.94,3.02l-2.02-4.11c-7.79,14.87-19.76,7.13-31.01,1.99l-5.98-4-.29-12.72-9.73-3.28c-1.03-4.65-.34-9.6-6-12,.42-3.38-.19-7.25.09-10.73-.41-2.51-3.18-.84-4.09-1.27-1.2-.57-5.12-2.28-5.36-2.55-3.43-3.91-11.93-55.79-12.6-64.48-4.54-58.7,9.86-145.78,18.25-205.68,17.72-126.47,43.29-256.83,73.08-380.92,29.97-124.85,62.97-249.31,94-374,51.21-205.81,108.91-409.55,172.11-611.89,18.34-58.72,40.41-116.61,54.52-176.46-4.11-.86-4.64,2.03-6.38,4.6-13.27,19.62-36.89,60.06-46.72,81.28-56.92,122.89-133.24,238.6-183.91,364.09-15.26,37.8-51.22,89.5-72.15,127.85-16.29,29.87-64.01,88.42-93,105-34.96,20-63.57,20.66-100.36,4.68-47.92-20.81-55.93-63-64.85-109.15-3.23-16.73-9.58-45.86-10.51-61.69-.75-12.8,18.36-15.36,27.25-20.31,9.88-5.5,20.41-10.88,29.74-16.26,15.05-8.69,34.24-41.65,47.76-54.24,3.64-3.39,7.82-3.8,11.18-6.82,24.65-22.2,49.3-83.15,71.77-103.73,2.57-2.35,6.66-.62,9.16-3.31,68.73-102.24,141.18-201.85,202.83-308.73l9.22-3.23c25.66-50.63,61.06-99.41,86.02-150,5.83-11.82,9.14-16.77,5.02-30.81l70-177.21,10.91.06c25.71-38.41,53.04-91.97,90.09-120.02,13.6-10.29,21.25-16.95,38.46-6.53,10.37,6.28,8.16,10.41,25.48,12.07,13.51,1.29,23.4,2.54,37.43,6.97,15.21,4.81,49.95,14.28,47.58,33.43,4.42.1,7.01-2.94,11.06-.23.96.64,12.81,17.4,13.41,18.75,9.38,21.1,10.01,60.96,4.55,83.51-5.24,21.67-18.81,50.5-26.99,73.01-38.38,105.58-86.43,207.18-122.07,313.93-1.43,4.29-5.01,10.7-2.98,15.02,113.96-189.71,243.56-370.11,389.98-536.02,125.72-142.45,312.23-329.28,482.97-413.03,85.08-41.73,124.28-44.55,213.09-10.98,158.71,59.99,66.83,266.38,14.68,374.75-73.75,153.28-179.46,304.92-280.08,441.92-183.82,250.28-384.76,487.82-579.63,729.37-3.83,2.72-12.42,11.05-13.98,15.03-.99,2.55.38,3.69,2.95,2.95,15.52-13.77,32.67-26.06,48-40.01,2.59-2.36,4.95-4.02,5.02-7.97.51-.28,1.45.27,2,0,4.72-2.31,9.41-2.92,10-10,.54-.26,1.46.26,2,0,4.75-2.3,9.4-2.94,10-10,.55-.26,1.47.26,2,0,18.18-9.09,42.06-32.43,59.04-46.04,22.48-18.01,47.46-37.85,69.9-55.93,7.77-6.26,19.56-13.09,23.06-22.03.48-.3,1.52.3,2,0,22.35-13.98,55.18-38.4,74.97-56.03,2.62-2.34,4.95-4.03,5.03-7.97.53-.27,1.48.27,2,0,12.16-6.4,24.03-15.02,34.63-24.37,2.6-2.29,5.55-3.1,5.37-7.63.45-.32,1.7.33,2,0,3.99.17,6.14-1.93,6-6,.43-.32,1.68.34,2,0,3.99.17,6.14-1.94,6-6,.61-.21,1.43.22,2,0,7.74-2.96,19.24-9.44,22-18,2.7-1.78,6.68-3.06,8-4,4.05.05,6.17-1.98,6-6,.6-.22,1.44.23,2,0,6.96-2.89,18.03-8.72,20-16,.47-.31,1.71.33,2,0,3.99.16,6.14-1.93,6-6,3.37-2.02,6.49-4.13,10-6s10.22-.9,10-8c1.21-.74,3.1-1.22,4-2,3.81.65,4.68-.17,4-4,5.41-3.27,10.42-6.89,16-10,3.51-1.96,10.27-.86,10-8,.49-.31,1.73.33,2,0h4s0-4,0-4c52.34-34.17,103.34-70.81,158.66-100.34,25.09-13.4,76.66-41.19,104.18-37.47,9.24,1.25,14.86,7.82,20.65,9.34,4.66,1.22,9.72-.14,14.63,1.37,11.75,3.61,46.59,14.42,53.95,22.09,1.42,1.49,3.44,5.04,3.94,7.02.54,2.17-.41,5.55-.01,8.01h8.01c.96,1.35,5.02,2.96,6.91,6.07,31.3,51.6-31.93,147.13-58.56,193.26-54.81,94.96-114.17,187.61-169.95,282.05-96.93,164.12-192.33,329.53-278.43,499.57,4.16,4.22,4.06-1.91,5.98-3.93,67.65-70.99,130.06-154.63,195.03-229.07,97.38-111.58,199.91-225.02,311-323,23.06-20.34,94.24-83.15,119.98-90.04,17.67-4.73,18.24,8.27,29.61,10.5,6.11,1.2,12.19-.46,17.34.68,8.36,1.85,42.12,13.37,47.91,18.08,4.82,3.93,2.49,8.92,3.29,9.71.91.91,7.36-.98,10.06.94,2.13,1.51,1.33,6.52,3.01,9.08,1.06,1.61,3.96,1.87,4.94,3.46,6.43,10.41.83,21.9,2.21,27.2.17.66,6.03,10.1,8.63,9.36,182.59-185.03,373.84-364.82,591.62-508.4,30.94-20.4,70.01-47.1,104.86-59.13,10.79-3.73,16.93-2.5,27.11,2.06,19.25,8.61,36.24,10.42,56.55,17.45,27.56,9.55,57.95,27.05,67.48,56.52,12.45,38.46,6.67,66.98-7.59,103.52-16.98,43.52-38.06,73.67-62.61,111.39-44.15,67.82-82.61,149.43-130.4,213.6-34.91,46.87-59.95,94.26-88.3,145.7-124.33,225.58-250.8,471.69-337.69,714.31-31.9,89.07-61.57,182.77-65.98,277.94.72,5.22,44.65-13.41,48.74-15.19,119.02-51.95,249.27-170.82,343.31-260.69,357.45-341.58,716.51-797.69,927.69-1246.31,84.12-178.69,169.13-421.34,104.28-616.72-23.72-71.47-83.25-186.52-140-236-6.08-11.32-8.69-8.53-14-14-.34-.35-.54-2.48-2-4-2.04-2.12-2.02-8.34-8-8-.73-4.26-7.5-12-10.95-14.12s-5.97-1.33-7.05-1.88c-.12-.54,2.36-1.5.19-5-5.44-8.77-22.56-19.73-29.2-28.99l1.01,7.99c-7.43-6.95-14.56-14.97-22-22l4.02-1.02c-13.74-14.6-28.94-30.55-46.02-40.98-1.41-4.03-7.76-10.02-11.93-13.13-3.22-2.4-4.14-3.93-8.07-.87-394.31-328.05-816.26-458.73-1331.02-434.02-823.42,39.52-1682.32,484.41-2031.33,1256.67-50.72,112.22-126.65,327.23-101.05,447.76,10.31,48.53,21.66,75.62,19.49,128.68-.48,11.7-2.27,24.75-3.97,36.06-7.75,5.75-31.96-19.22-37.14-25.11-56.56-64.38-77.76-150.07-88.69-233.31-28.3-215.53,86.18-467.81,194.88-648.55,366.4-609.23,1059.34-975.93,1752.12-1071.88,391.97-54.29,742.16-20.3,1111.75,117.68,398.3,148.7,921.96,518.99,946.94,985.06,16.67,310.98-184.45,665.62-347.15,920.81-199.84,313.46-443.93,612.57-711.78,870.22-112.31,108.03-296.22,279.9-452.64,305.36-36.2,5.89-68.41-.34-98.42-21.42ZM2225.99,608.02c-51.06,2.96-104.04,6.77-154.71,14.26-3.16.47-12.05.87-13.27,3.7l167.98-17.96ZM2055.99,626.02h-11.98v1.96h11.98v-1.96ZM2039.99,628.02h-11.98v1.96h11.98v-1.96ZM2053.79,1152.19c-45.15-9.34-93,17.65-131.13,39.46-123.07,70.4-252.3,193-350.71,295.29-293.69,305.29-530.77,675.75-700.31,1063.69-67.32,154.04-125.91,312.99-169.62,475.36,136.06-177.66,284.97-344.98,427.93-517.05,155.19-186.8,309.84-375.38,458.84-567.16,130.71-168.24,267.07-348,368.25-535.75,42.35-78.59,84.19-164.87,96.75-253.85ZM1113.99,1526.01c-3.69-.47-5.87-.12-7.97,3.02v2.96s7.97,0,7.97,0v-5.98ZM1133.99,1586.01c-5.85-1.59-7.18,9.96-2.96,11.97l2.96-11.97ZM862,1946c-.17,1.16-.64,4.1,1,4.02,2.12.02.39-2.98,1-4.02,1.29-2.21,6.13-3.49,3.98-10-3.96,1.26-5.43,6.25-5.98,10ZM3183.98,2132l-.97-13.99c-4.53,3.59-4.59,12.04.97,13.99ZM2300.01,2529.99l13.95-2.99c-.07-4.13-15.55-5.3-13.95,2.99ZM2325.99,2566.01c-11.89-1.91-10.33,15.56.02,10.98l-.02-10.98ZM1914,2958c-.98,1.49-5.45,1.72-3.99,5.99h2.97c1.6-.56,2.13-3.21,3.02-3.99,5.96-5.2,12.52-11.4,13.02-19.96-6.78,5.37-10.49,11.02-15.02,17.96ZM701,3028v2c1.3-.67,1.3-1.33,0-2ZM1573,3130v2c1.3-.67,1.3-1.33,0-2ZM1791.99,3328.01c-4.74-4.68-10.04,7.95-7.98,9.98,4.74,4.68,10.04-7.95,7.98-9.98Z"/>
    <path class="st22" d="M3198.02,1220l6.77-3.93c10.77,8.8,15.09,27.93,15.04,41.17-.03,7.79-14.74,43.74-11.82,46.74,5.87,2.08,5.47-3.15,7.51-3.83,9.08-3.05,30.03-7.14,39.31-5.98,6.99.87,11.64,5.3,17.18,6.82,25.16,6.88,60.76,12.86,78.81,33.19,23.46,26.43,14.27,66.44-10.76,88.87-23.54,21.08-49.83,42.73-77.05,58.95l-36.7,31.41c16.12,53.4,38.03,114.72,31.49,171.37-4.12,35.63-42,59.05-76.23,48.65-47.7-14.49-57.91-85.78-65.58-127.43-3-.81-3.31.75-5.01,1.96-20.99,14.81-58.26,55.7-85.46,51.61-6.79-1.02-23.9-5.08-31.15-6.93-13.98-3.56-21.22-15.84-25.37-28.63-5.85-18.07-11.62-47.13-4.4-64.42,15.75-37.75,41.35-76.75,60.46-113.54,4.35-8.38,20.71-38.01,21.03-45.01.23-5.1-7.4-2.67-12.17-3.94-10.98-2.91-33.85-12.54-40.02-22.02-2-3.07-1.22-6.57-2.43-8.53-1.06-1.71-6.91-2.97-8.54-6.63-1.95-4.38,1.76-8.51,1.24-12.92-.3-2.55-7.34-7.04-9.55-14.58-1.89-6.44-11.62-59.95-9.76-62.51,3.19-4.41,15.32-.95,20.05.21,14.9,3.65,35.46,10.59,50.2,15.8,12.65,4.48,42.66,21.6,53.66,17.8,3.23-1.11,11.73-26.23,12.79-31.2,2.87-13.53,5.98-88.99,10.71-92.29,2.7-.79,5.6-.42,8.29.22,15.46,3.66,55.92,15.79,68.87,23.16,7.13,4.06,9.77,7.8,8.63,16.39Z"/>
  </g>
</svg>